<?xml version="1.0" encoding="UTF-8" standalone="no"?>
<!-- Created with Inkscape (http://www.inkscape.org/) -->

<svg
   xmlns:dc="http://purl.org/dc/elements/1.1/"
   xmlns:cc="http://creativecommons.org/ns#"
   xmlns:rdf="http://www.w3.org/1999/02/22-rdf-syntax-ns#"
   xmlns:svg="http://www.w3.org/2000/svg"
   xmlns="http://www.w3.org/2000/svg"
   xmlns:sodipodi="http://sodipodi.sourceforge.net/DTD/sodipodi-0.dtd"
   xmlns:inkscape="http://www.inkscape.org/namespaces/inkscape"
   width="4.3899999cm"
   height="5.0799999cm"
   viewBox="0 0 43.899999 50.799998"
   version="1.1"
   id="svg8"
   sodipodi:docname="kerasgenerator.svg"
   inkscape:version="0.92.3 (unknown)"
   inkscape:export-filename="/home/bagasbgy/Downloads/kerasgenerator.png"
   inkscape:export-xdpi="96"
   inkscape:export-ydpi="96">
  <defs
     id="defs2" />
  <sodipodi:namedview
     id="base"
     pagecolor="#ffffff"
     bordercolor="#666666"
     borderopacity="1.0"
     inkscape:pageopacity="0.0"
     inkscape:pageshadow="2"
     inkscape:zoom="3.959798"
     inkscape:cx="49.049964"
     inkscape:cy="95.839671"
     inkscape:document-units="mm"
     inkscape:current-layer="layer1"
     showgrid="false"
     units="cm"
     inkscape:snap-global="false"
     inkscape:lockguides="true"
     inkscape:window-width="1920"
     inkscape:window-height="1051"
     inkscape:window-x="0"
     inkscape:window-y="0"
     inkscape:window-maximized="1" />
  <metadata
     id="metadata5">
    <rdf:RDF>
      <cc:Work
         rdf:about="">
        <dc:format>image/svg+xml</dc:format>
        <dc:type
           rdf:resource="http://purl.org/dc/dcmitype/StillImage" />
        <dc:title />
      </cc:Work>
    </rdf:RDF>
  </metadata>
  <g
     inkscape:label="Layer 1"
     inkscape:groupmode="layer"
     id="layer1"
     transform="translate(0,-246.20002)">
    <path
       sodipodi:type="star"
       style="fill:#ffe573;fill-opacity:1;stroke:#5a505f;stroke-width:0.4003762;stroke-opacity:1"
       id="path16"
       sodipodi:sides="6"
       sodipodi:cx="16.298647"
       sodipodi:cy="278.17996"
       sodipodi:r1="18.588898"
       sodipodi:r2="16.098455"
       sodipodi:arg1="0.52359878"
       sodipodi:arg2="1.0471976"
       inkscape:flatsided="true"
       inkscape:rounded="0"
       inkscape:randomized="0"
       d="m 32.397105,287.47441 -16.098458,9.29445 -16.09845775,-9.29445 8e-8,-18.5889 16.09845767,-9.29445 16.098458,9.29445 z"
       transform="matrix(1.3467548,0,0,1.3496095,-2.8063505e-4,-103.83435)" />
    <g
       id="g92"
       transform="matrix(0.04444169,0,0,0.04444169,11.206994,261.84953)" />
    <g
       id="g94"
       transform="matrix(0.04444169,0,0,0.04444169,11.206994,261.84953)" />
    <g
       id="g96"
       transform="matrix(0.04444169,0,0,0.04444169,11.206994,261.84953)" />
    <g
       id="g98"
       transform="matrix(0.04444169,0,0,0.04444169,11.206994,261.84953)" />
    <g
       id="g100"
       transform="matrix(0.04444169,0,0,0.04444169,11.206994,261.84953)" />
    <g
       id="g102"
       transform="matrix(0.04444169,0,0,0.04444169,11.206994,261.84953)" />
    <g
       id="g104"
       transform="matrix(0.04444169,0,0,0.04444169,11.206994,261.84953)" />
    <g
       id="g106"
       transform="matrix(0.04444169,0,0,0.04444169,11.206994,261.84953)" />
    <g
       id="g108"
       transform="matrix(0.04444169,0,0,0.04444169,11.206994,261.84953)" />
    <g
       id="g110"
       transform="matrix(0.04444169,0,0,0.04444169,11.206994,261.84953)" />
    <g
       id="g112"
       transform="matrix(0.04444169,0,0,0.04444169,11.206994,261.84953)" />
    <g
       id="g114"
       transform="matrix(0.04444169,0,0,0.04444169,11.206994,261.84953)" />
    <g
       id="g116"
       transform="matrix(0.04444169,0,0,0.04444169,11.206994,261.84953)" />
    <g
       id="g118"
       transform="matrix(0.04444169,0,0,0.04444169,11.206994,261.84953)" />
    <g
       id="g120"
       transform="matrix(0.04444169,0,0,0.04444169,11.206994,261.84953)" />
    <g
       id="g1190"
       transform="translate(0,-0.46234929)">
      <g
         transform="translate(0,-0.8686259)"
         id="g5567">
        <g
           id="g5163"
           transform="translate(0,2.4507536)"
           style="fill:#5a505f;fill-opacity:1">
          <g
             style="fill:#5a505f;fill-opacity:1"
             transform="matrix(0.03307368,0,0,0.03307291,17.658447,253.50286)"
             id="g4894">
            <g
               style="fill:#5a505f;fill-opacity:1"
               id="g4838">
              <path
                 style="fill:#5a505f;fill-opacity:1"
                 inkscape:connector-curvature="0"
                 id="rect34754"
                 d="M 75.067,2.72 C 73.792,2.757 72.58,3.28 71.678,4.181 l -15,15 c -1.975,1.93 -2.012,5.096 -0.082,7.071 1.93,1.975 5.096,2.012 7.071,0.082 0.028,-0.027 0.056,-0.055 0.083,-0.083 l 6.463,-6.463 v 42.928 h -10 c -2.761,-0.039 -5.032,2.168 -5.071,4.929 -0.039,2.761 2.168,5.032 4.929,5.071 0.047,0.001 0.094,0.001 0.141,0 h 14.182 c 0.535,0.088 1.08,0.088 1.615,0 h 9.203 c 2.761,0.039 5.032,-2.168 5.071,-4.929 0.039,-2.761 -2.168,-5.032 -4.929,-5.071 -0.047,-10e-4 -0.094,-10e-4 -0.141,0 h -5 v -55 C 80.212,4.954 77.972,2.717 75.21,2.718 c -0.047,0 -0.095,10e-4 -0.143,0.002 z m 55.143,0 c -1.275,0.037 -2.487,0.56 -3.389,1.461 l -15,15 c -1.992,1.913 -2.057,5.078 -0.144,7.07 1.913,1.992 5.078,2.057 7.07,0.144 0.049,-0.047 0.097,-0.095 0.144,-0.144 l 6.465,-6.465 v 42.93 h -10 c -2.761,-0.039 -5.032,2.168 -5.071,4.929 -0.039,2.761 2.168,5.032 4.929,5.071 0.047,0.001 0.094,0.001 0.141,0 h 14.182 c 0.537,0.088 1.084,0.088 1.621,0 h 9.197 c 2.761,0.039 5.032,-2.168 5.071,-4.929 0.039,-2.761 -2.168,-5.032 -4.929,-5.071 -0.047,-10e-4 -0.094,-10e-4 -0.141,0 h -5 v -55 c -0.001,-2.762 -2.241,-4.999 -5.003,-4.998 -0.047,0 -0.095,10e-4 -0.143,0.002 z M 17.571,2.754 c -9.609,0 -17.5,7.891 -17.5,17.5 v 35 c 0,9.609 7.891,17.5 17.5,17.5 9.609,0 17.5,-7.891 17.5,-17.5 v -35 c 0,-9.609 -7.891,-17.5 -17.5,-17.5 z m 165.428,0 c -9.609,0 -17.5,7.891 -17.5,17.5 v 35 c 0,9.609 7.891,17.5 17.5,17.5 9.609,0 17.5,-7.891 17.5,-17.5 v -35 c 0,-9.609 -7.892,-17.5 -17.5,-17.5 z m 55.143,0 c -9.609,0 -17.5,7.891 -17.5,17.5 v 35 c 0,9.609 7.891,17.5 17.5,17.5 9.609,0 17.5,-7.891 17.5,-17.5 v -35 c 0,-9.609 -7.892,-17.5 -17.5,-17.5 z m -220.571,10 c 4.241,0 7.5,3.259 7.5,7.5 v 35 c 0,4.241 -3.259,7.5 -7.5,7.5 -4.241,0 -7.5,-3.259 -7.5,-7.5 v -35 c 0,-4.242 3.259,-7.5 7.5,-7.5 z m 165.428,0 c 4.241,0 7.5,3.259 7.5,7.5 v 35 c 0,4.241 -3.259,7.5 -7.5,7.5 -4.241,0 -7.5,-3.259 -7.5,-7.5 v -35 c 0,-4.242 3.258,-7.5 7.5,-7.5 z m 55.143,0 c 4.241,0 7.5,3.259 7.5,7.5 v 35 c 0,4.241 -3.259,7.5 -7.5,7.5 -4.241,0 -7.5,-3.259 -7.5,-7.5 v -35 c 0,-4.242 3.258,-7.5 7.5,-7.5 z M 19.925,92.791 c -1.275,0.037 -2.487,0.56 -3.389,1.461 l -15,15 c -1.952,1.954 -1.949,5.121 0.005,7.072 1.952,1.95 5.115,1.95 7.067,0 l 6.463,-6.463 v 42.928 h -10 C 2.31,152.75 0.039,154.957 0,157.718 c -0.039,2.761 2.168,5.032 4.929,5.071 0.047,0.001 0.094,0.001 0.141,0 h 14.182 c 0.537,0.088 1.084,0.088 1.621,0 h 9.197 c 2.761,0.039 5.032,-2.168 5.071,-4.929 0.039,-2.761 -2.168,-5.032 -4.929,-5.071 -0.047,-10e-4 -0.094,-10e-4 -0.141,0 h -5 v -55 c 0,-2.762 -2.239,-5 -5.001,-5 -0.048,0 -0.097,0 -0.145,0.002 z m 110.285,0 c -1.275,0.037 -2.487,0.56 -3.389,1.461 l -15,15 c -1.976,1.93 -2.013,5.095 -0.084,7.071 1.93,1.976 5.095,2.013 7.071,0.084 0.028,-0.027 0.056,-0.055 0.083,-0.083 l 6.465,-6.465 v 42.93 h -10 c -2.761,-0.039 -5.032,2.168 -5.071,4.929 -0.039,2.761 2.168,5.032 4.929,5.071 0.047,0.001 0.094,0.001 0.141,0 h 14.182 c 0.537,0.088 1.084,0.088 1.621,0 h 9.197 c 2.761,0.039 5.032,-2.168 5.071,-4.929 0.039,-2.761 -2.168,-5.032 -4.929,-5.071 -0.047,-10e-4 -0.094,-10e-4 -0.141,0 h -5 v -55 c 0,-2.762 -2.239,-5 -5.001,-5 -0.048,0 -0.097,0 -0.145,0.002 z m 55.142,0 c -1.275,0.037 -2.487,0.56 -3.389,1.461 l -15,15 c -1.976,1.93 -2.013,5.095 -0.084,7.071 1.93,1.976 5.095,2.013 7.071,0.084 0.028,-0.027 0.056,-0.055 0.083,-0.083 l 6.465,-6.465 v 42.93 h -10 c -2.761,-0.039 -5.032,2.168 -5.071,4.929 -0.039,2.761 2.168,5.032 4.929,5.071 0.047,0.001 0.094,0.001 0.141,0 h 14.182 c 0.537,0.088 1.084,0.088 1.621,0 h 9.197 c 2.761,0.039 5.032,-2.168 5.071,-4.929 0.039,-2.761 -2.168,-5.032 -4.929,-5.071 -0.047,-10e-4 -0.094,-10e-4 -0.141,0 h -5 v -55 c 0,-2.762 -2.239,-5 -5.001,-5 -0.047,0 -0.096,0 -0.145,0.002 z M 72.714,92.824 c -9.609,0 -17.5,7.891 -17.5,17.5 v 35 c 0,9.609 7.891,17.5 17.5,17.5 9.609,0 17.5,-7.891 17.5,-17.5 v -35 c 0,-9.609 -7.892,-17.5 -17.5,-17.5 z m 165.428,0 c -9.609,0 -17.5,7.891 -17.5,17.5 v 35 c 0,9.609 7.891,17.5 17.5,17.5 9.609,0 17.5,-7.891 17.5,-17.5 v -35 c 0,-9.609 -7.892,-17.5 -17.5,-17.5 z m -165.428,10 c 4.241,0 7.5,3.259 7.5,7.5 v 35 c 0,4.241 -3.259,7.5 -7.5,7.5 -4.241,0 -7.5,-3.259 -7.5,-7.5 v -35 c 0,-4.242 3.258,-7.5 7.5,-7.5 z m 165.428,0 c 4.241,0 7.5,3.259 7.5,7.5 v 35 c 0,4.241 -3.259,7.5 -7.5,7.5 -4.241,0 -7.5,-3.259 -7.5,-7.5 v -35 c 0,-4.242 3.258,-7.5 7.5,-7.5 z M 19.925,182.861 c -1.275,0.037 -2.487,0.56 -3.389,1.461 l -15,15 c -1.953,1.953 -1.953,5.119 0,7.072 1.953,1.953 5.119,1.953 7.072,0 l 6.463,-6.463 v 42.926 h -10 C 2.31,242.818 0.039,245.025 0,247.786 c -0.039,2.761 2.168,5.032 4.929,5.071 0.047,0.001 0.094,0.001 0.141,0 h 14.182 c 0.537,0.088 1.084,0.088 1.621,0 h 9.197 c 2.761,0.039 5.032,-2.168 5.071,-4.929 0.039,-2.761 -2.168,-5.032 -4.929,-5.071 -0.047,-0.001 -0.094,-0.001 -0.141,0 h -5 v -55 c -0.001,-2.762 -2.241,-4.999 -5.003,-4.998 -0.047,0 -0.095,0.001 -0.143,0.002 z m 55.142,0 c -1.275,0.037 -2.487,0.56 -3.389,1.461 l -15,15 c -1.953,1.953 -1.953,5.119 0,7.072 1.953,1.953 5.119,1.953 7.072,0 l 6.463,-6.463 v 42.926 h -10 c -2.761,-0.039 -5.032,2.168 -5.071,4.929 -0.039,2.761 2.168,5.032 4.929,5.071 0.047,0.001 0.094,0.001 0.141,0 h 14.182 c 0.535,0.088 1.08,0.088 1.615,0 h 9.203 c 2.761,0.039 5.032,-2.168 5.071,-4.929 0.039,-2.761 -2.168,-5.032 -4.929,-5.071 -0.047,-0.001 -0.094,-0.001 -0.141,0 h -5 v -55 c -10e-4,-2.762 -2.241,-4.999 -5.003,-4.998 -0.047,0 -0.095,0.001 -0.143,0.002 z m 55.143,0 c -1.275,0.037 -2.487,0.56 -3.389,1.461 l -15,15 c -1.976,1.93 -2.013,5.095 -0.084,7.071 1.93,1.976 5.095,2.013 7.071,0.084 0.028,-0.027 0.056,-0.055 0.083,-0.083 l 6.465,-6.465 v 42.928 h -10 c -2.761,-0.039 -5.032,2.168 -5.071,4.929 -0.039,2.761 2.168,5.032 4.929,5.071 0.047,0.001 0.094,0.001 0.141,0 h 14.182 c 0.537,0.088 1.084,0.088 1.621,0 h 9.197 c 2.761,0.039 5.032,-2.168 5.071,-4.929 0.039,-2.761 -2.168,-5.032 -4.929,-5.071 -0.047,-0.001 -0.094,-0.001 -0.141,0 h -5 v -55 c -0.001,-2.762 -2.241,-4.999 -5.003,-4.998 -0.047,0 -0.095,0.001 -0.143,0.002 z m 55.142,0 c -1.275,0.037 -2.487,0.56 -3.389,1.461 l -15,15 c -1.976,1.93 -2.013,5.095 -0.084,7.071 1.93,1.976 5.095,2.013 7.071,0.084 0.028,-0.027 0.056,-0.055 0.083,-0.083 l 6.465,-6.465 v 42.928 h -10 c -2.761,-0.039 -5.032,2.168 -5.071,4.929 -0.039,2.761 2.168,5.032 4.929,5.071 0.047,0.001 0.094,0.001 0.141,0 h 14.182 c 0.537,0.088 1.084,0.088 1.621,0 h 9.197 c 2.761,0.039 5.032,-2.168 5.071,-4.929 0.039,-2.761 -2.168,-5.032 -4.929,-5.071 -0.047,-0.001 -0.094,-0.001 -0.141,0 h -5 v -55 c -10e-4,-2.762 -2.241,-4.999 -5.003,-4.998 -0.047,0 -0.095,0.001 -0.143,0.002 z m 52.79,0.033 c -9.609,0 -17.5,7.891 -17.5,17.5 v 35 c 0,9.609 7.891,17.5 17.5,17.5 9.609,0 17.5,-7.891 17.5,-17.5 v -35 c 0,-9.608 -7.892,-17.5 -17.5,-17.5 z m 0,10 c 4.241,0 7.5,3.259 7.5,7.5 v 35 c 0,4.241 -3.259,7.5 -7.5,7.5 -4.241,0 -7.5,-3.259 -7.5,-7.5 v -35 c 0,-4.241 3.258,-7.5 7.5,-7.5 z" />
            </g>
            <g
               style="fill:#5a505f;fill-opacity:1"
               id="g4840" />
            <g
               style="fill:#5a505f;fill-opacity:1"
               id="g4842" />
            <g
               style="fill:#5a505f;fill-opacity:1"
               id="g4844" />
            <g
               style="fill:#5a505f;fill-opacity:1"
               id="g4846" />
            <g
               style="fill:#5a505f;fill-opacity:1"
               id="g4848" />
            <g
               style="fill:#5a505f;fill-opacity:1"
               id="g4850" />
            <g
               style="fill:#5a505f;fill-opacity:1"
               id="g4852" />
            <g
               style="fill:#5a505f;fill-opacity:1"
               id="g4854" />
            <g
               style="fill:#5a505f;fill-opacity:1"
               id="g4856" />
            <g
               style="fill:#5a505f;fill-opacity:1"
               id="g4858" />
            <g
               style="fill:#5a505f;fill-opacity:1"
               id="g4860" />
            <g
               style="fill:#5a505f;fill-opacity:1"
               id="g4862" />
            <g
               style="fill:#5a505f;fill-opacity:1"
               id="g4864" />
            <g
               style="fill:#5a505f;fill-opacity:1"
               id="g4866" />
            <g
               style="fill:#5a505f;fill-opacity:1"
               id="g4868" />
          </g>
          <text
             transform="scale(0.96292075,1.0385071)"
             id="text4898"
             y="251.77844"
             x="15.30378"
             style="font-style:normal;font-variant:normal;font-weight:normal;font-stretch:normal;font-size:10.99112129px;line-height:1.25;font-family:Roboto;-inkscape-font-specification:Roboto;letter-spacing:0px;word-spacing:0px;fill:#5a505f;fill-opacity:1;stroke:none;stroke-width:0.27477804"
             xml:space="preserve"><tspan
               style="font-style:normal;font-variant:normal;font-weight:300;font-stretch:normal;font-family:Roboto;-inkscape-font-specification:'Roboto Light';fill:#5a505f;fill-opacity:1;stroke-width:0.27477804"
               y="251.77844"
               x="15.30378"
               id="tspan4896"
               sodipodi:role="line">[</tspan></text>
          <text
             transform="scale(-0.96292075,1.0385071)"
             id="text4898-8"
             y="251.77841"
             x="-30.120918"
             style="font-style:normal;font-variant:normal;font-weight:normal;font-stretch:normal;font-size:10.99112129px;line-height:1.25;font-family:Roboto;-inkscape-font-specification:Roboto;letter-spacing:0px;word-spacing:0px;fill:#5a505f;fill-opacity:1;stroke:none;stroke-width:0.27477804"
             xml:space="preserve"><tspan
               style="font-style:normal;font-variant:normal;font-weight:300;font-stretch:normal;font-family:Roboto;-inkscape-font-specification:'Roboto Light';fill:#5a505f;fill-opacity:1;stroke-width:0.27477804"
               y="251.77841"
               x="-30.120918"
               id="tspan4896-1"
               sodipodi:role="line">[</tspan></text>
        </g>
        <g
           id="g5524">
          <rect
             id="rect18"
             height="2.8895986"
             width="0.72237194"
             style="fill:#4b3f4e;stroke-width:0.0444422"
             y="275.017"
             x="16.526054" />
          <path
             id="path26"
             d="m 25.712894,270.683 v 3.97295 c 0,0.19946 -0.246496,0.36118 -0.550501,0.36118 H 18.55637 V 270.683 Z"
             style="fill:#aea8af;stroke-width:0.05486678"
             inkscape:connector-curvature="0" />
          <rect
             id="rect22"
             height="4.278121"
             width="1.4447441"
             style="fill:#4b3f4e;stroke-width:0.0444422"
             y="273.5722"
             x="25.555925" />
          <rect
             id="rect28"
             height="1.0835328"
             width="6.6057515"
             style="fill:#9c969e;stroke-width:0.05486678"
             y="270.68304"
             x="19.106735" />
          <path
             id="path30"
             d="m 18.55637,275.37827 h -2.202008 c -0.304006,0 -0.550502,-0.16173 -0.550502,-0.36118 v -4.33413 h 3.303011 v 4.33413 c 0,0.1995 -0.246496,0.36118 -0.550501,0.36118 z"
             style="fill:#cd0000;fill-opacity:1;stroke-width:0.05486678"
             inkscape:connector-curvature="0" />
          <path
             id="path32"
             d="m 15.80386,273.57238 -0.897565,-0.22439 c -0.321587,-0.0804 -0.547179,-0.36931 -0.547179,-0.7008 v -1.96423 h 1.444744 z"
             style="fill:#5a505f;fill-opacity:1;stroke-width:0.0444422"
             inkscape:connector-curvature="0" />
          <rect
             id="rect34"
             height="1.0835328"
             width="1.4447439"
             style="fill:#4b3f4e;stroke-width:0.0444422"
             y="270.68304"
             x="14.359116" />
          <rect
             id="rect36"
             height="1.0835328"
             width="3.3030114"
             style="fill:#af0000;fill-opacity:1;stroke-width:0.05486678"
             y="270.68304"
             x="15.803861" />
          <g
             transform="matrix(0.04444272,0,0,0.04444169,12.192,260.93125)"
             id="g42">
            <rect
               id="rect38"
               height="16.254"
               width="422.60001"
               style="fill:#4b3f4e"
               y="113.779"
               x="8.1269999" />
            <rect
               id="rect40"
               height="16.254"
               width="422.60001"
               style="fill:#4b3f4e"
               y="195.049"
               x="8.1269999" />
          </g>
          <path
             sodipodi:nodetypes="ssssscccssssssssss"
             inkscape:connector-curvature="0"
             style="fill:#5a505f;fill-opacity:1;stroke-width:0.0444422"
             d="M 29.89007,263.09827 H 13.99793 c -0.995739,0 -1.80593,0.81017 -1.80593,1.80589 v 11.55764 c 0,0.99571 0.810209,1.79986 1.80593,1.80589 6.724556,0.0407 8.411187,0 15.89214,0 0.995739,0 1.805929,-0.81018 1.805929,-1.80589 v -11.55764 c 0,-0.99572 -0.81019,-1.80589 -1.805929,-1.80589 z m 1.083558,13.36353 c 0,0.59747 -0.486071,1.08353 -1.083558,1.08353 H 13.99793 c -0.597488,0 -1.083558,-0.48606 -1.083558,-1.08353 v -11.55764 c 0,-0.59747 0.48607,-1.08353 1.083558,-1.08353 h 15.89214 c 0.597487,0 1.083558,0.48606 1.083558,1.08353 z"
             id="path44" />
          <path
             inkscape:connector-curvature="0"
             style="fill:#5a505f;fill-opacity:1;stroke-width:0.0444422"
             d="m 29.528883,273.93356 h -3.561061 c -0.354476,0 -0.695219,-0.12982 -0.960097,-0.36505 l -2.634476,-2.34199 c -0.132261,-0.11746 -0.302966,-0.18234 -0.48007,-0.18234 h -7.534063 c -0.398207,0 -0.722372,-0.32416 -0.722372,-0.72236 v -3.97295 c 0,-0.19963 0.161549,-0.36118 0.361186,-0.36118 h 15.89214 c 0.199636,0 0.361185,0.16155 0.361185,0.36118 v 6.86237 c 0,0.3982 -0.324121,0.72232 -0.722372,0.72232 z"
             id="path46" />
          <path
             inkscape:connector-curvature="0"
             style="fill:#cd0000;fill-opacity:1;stroke-width:0.0444422"
             d="m 14.359116,267.4324 v 2.16707 c 0,0.39895 0.32341,0.72235 0.722372,0.72235 h 6.811736 c 0.353941,0 0.695573,0.12991 0.960096,0.36505 l 2.634475,2.34199 c 0.132129,0.11746 0.302788,0.18234 0.479582,0.18234 h 2.839178 c 0.398963,0 0.722373,-0.3234 0.722373,-0.72236 v -5.05644 c 0,-0.39895 -0.32341,-0.72235 -0.722373,-0.72235 H 15.081488 c -0.398962,0 -0.722372,0.3234 -0.722372,0.72235 z"
             id="path50" />
          <path
             inkscape:connector-curvature="0"
             style="fill:#cd0000;fill-opacity:1;stroke-width:0.0444422"
             d="M 29.89007,263.82063 H 13.99793 c -0.598421,0 -1.083558,0.48512 -1.083558,1.08353 v 1.08353 h 18.059256 v -1.08353 c 0,-0.59841 -0.485138,-1.08353 -1.083558,-1.08353 z"
             id="path52" />
          <path
             id="path56"
             d="m 12.980725,264.54298 h 17.926549 c -0.149283,-0.41988 -0.546111,-0.72235 -1.017204,-0.72235 H 13.99793 c -0.471093,0 -0.867922,0.30247 -1.017205,0.72235 z"
             style="fill:#e10000;fill-opacity:1;stroke-width:0.0444422"
             inkscape:connector-curvature="0" />
          <path
             inkscape:connector-curvature="0"
             style="fill:#5d5360;stroke-width:0.0444422"
             d="m 15.80386,269.59947 h -0.361186 c -0.199637,0 -0.361186,-0.16155 -0.361186,-0.36118 0,-0.19963 0.161549,-0.36118 0.361186,-0.36118 h 0.361186 c 0.199636,0 0.361186,0.16155 0.361186,0.36118 0,0.19963 -0.16155,0.36118 -0.361186,0.36118 z"
             id="path72" />
        </g>
      </g>
      <g
         id="text5231"
         style="font-style:normal;font-weight:normal;font-size:4.94013405px;line-height:1.25;font-family:sans-serif;letter-spacing:0px;word-spacing:0px;opacity:1;fill:#cd0000;fill-opacity:1;stroke:none;stroke-width:0.14111111;stroke-miterlimit:4;stroke-dasharray:none;stroke-opacity:1"
         transform="matrix(1.0000048,0,0,0.9999952,0,0.32871453)"
         aria-label="kerasgenerator">
        <path
           id="path872"
           style="fill:#cd0000;fill-opacity:1;stroke:none;stroke-width:0.14111111;stroke-miterlimit:4;stroke-dasharray:none;stroke-opacity:1"
           d="m 3.277484,279.26237 h 0.4462524 v 2.21679 l 1.324284,-1.16508 h 0.566861 l -1.4328318,1.26398 1.4931362,1.43766 H 5.0962639 l -1.3725275,-1.31946 v 1.31946 H 3.277484 Z"
           inkscape:connector-curvature="0" />
        <path
           id="path874"
           style="fill:#cd0000;fill-opacity:1;stroke:none;stroke-width:0.14111111;stroke-miterlimit:4;stroke-dasharray:none;stroke-opacity:1"
           d="m 8.2972198,281.55394 v 0.21709 H 6.2565199 q 0.028946,0.45832 0.2749879,0.69954 0.248454,0.2388 0.689882,0.2388 0.2556905,0 0.4944958,-0.0627 0.2412175,-0.0627 0.4776107,-0.18815 v 0.41972 q -0.2388053,0.10131 -0.4896715,0.15438 -0.2508662,0.0531 -0.5089689,0.0531 -0.6464629,0 -1.0251743,-0.3763 -0.3762993,-0.3763 -0.3762993,-1.01794 0,-0.66335 0.3570019,-1.05171 0.359414,-0.39077 0.9672821,-0.39077 0.5451515,0 0.8611464,0.35218 0.3184071,0.34976 0.3184071,0.95281 z m -0.4438402,-0.13026 q -0.00482,-0.36424 -0.2050349,-0.58133 -0.1977983,-0.2171 -0.5258541,-0.2171 -0.3714749,0 -0.5958071,0.20986 -0.2219201,0.20986 -0.2556906,0.59098 z"
           inkscape:connector-curvature="0" />
        <path
           id="path876"
           style="fill:#cd0000;fill-opacity:1;stroke:none;stroke-width:0.14111111;stroke-miterlimit:4;stroke-dasharray:none;stroke-opacity:1"
           d="m 10.591198,280.72897 q -0.07478,-0.0434 -0.164028,-0.0627 -0.08684,-0.0217 -0.192974,-0.0217 -0.3762994,0 -0.5789221,0.24604 -0.2002105,0.24363 -0.2002105,0.70194 v 1.42319 H 9.0088111 v -2.70164 h 0.4462523 v 0.41972 q 0.1399062,-0.24604 0.3642384,-0.36424 0.2243322,-0.12061 0.5451512,-0.12061 0.04583,0 0.101312,0.007 0.05548,0.005 0.123021,0.0169 z"
           inkscape:connector-curvature="0" />
        <path
           id="path878"
           style="fill:#cd0000;fill-opacity:1;stroke:none;stroke-width:0.14111111;stroke-miterlimit:4;stroke-dasharray:none;stroke-opacity:1"
           d="m 12.289369,281.65766 q -0.537915,0 -0.745362,0.12302 -0.207447,0.12302 -0.207447,0.41972 0,0.23639 0.154379,0.3763 0.156792,0.13749 0.424543,0.13749 0.369063,0 0.590983,-0.26051 0.224332,-0.26293 0.224332,-0.69712 v -0.0989 z m 0.885268,-0.18332 v 1.54138 h -0.44384 v -0.41007 q -0.151967,0.24604 -0.378711,0.36424 -0.226745,0.11578 -0.554801,0.11578 -0.414894,0 -0.660935,-0.23157 -0.24363,-0.23398 -0.24363,-0.62475 0,-0.4559 0.303934,-0.68747 0.306346,-0.23157 0.911802,-0.23157 h 0.622341 v -0.0434 q 0,-0.30635 -0.202623,-0.47279 -0.20021,-0.16885 -0.564449,-0.16885 -0.231568,0 -0.451076,0.0555 -0.219508,0.0555 -0.422131,0.16644 v -0.41007 q 0.24363,-0.0941 0.472786,-0.1399 0.229157,-0.0482 0.446253,-0.0482 0.586158,0 0.875619,0.30394 0.289461,0.30393 0.289461,0.92145 z"
           inkscape:connector-curvature="0" />
        <path
           id="path880"
           style="fill:#cd0000;fill-opacity:1;stroke:none;stroke-width:0.14111111;stroke-miterlimit:4;stroke-dasharray:none;stroke-opacity:1"
           d="m 15.813556,280.39368 v 0.41972 q -0.188149,-0.0965 -0.390772,-0.14473 -0.202623,-0.0482 -0.419719,-0.0482 -0.330468,0 -0.496908,0.10131 -0.164027,0.10131 -0.164027,0.30393 0,0.15438 0.118196,0.24363 0.118197,0.0868 0.475199,0.16644 l 0.151967,0.0338 q 0.472786,0.10131 0.670584,0.28705 0.200211,0.18333 0.200211,0.51379 0,0.3763 -0.29911,0.59581 -0.296698,0.21951 -0.817727,0.21951 -0.217096,0 -0.453489,-0.0434 -0.233981,-0.041 -0.494496,-0.12543 v -0.45832 q 0.246042,0.12785 0.484847,0.19298 0.238805,0.0627 0.472786,0.0627 0.313583,0 0.482435,-0.10613 0.168853,-0.10855 0.168853,-0.30394 0,-0.18091 -0.123021,-0.2774 -0.120609,-0.0965 -0.533091,-0.18573 l -0.154379,-0.0362 q -0.412482,-0.0868 -0.595807,-0.26533 -0.183326,-0.18092 -0.183326,-0.4945 0,-0.38112 0.270164,-0.58857 0.270164,-0.20745 0.767072,-0.20745 0.246041,0 0.463137,0.0362 0.217096,0.0362 0.400421,0.10855 z"
           inkscape:connector-curvature="0" />
        <path
           id="path882"
           style="fill:#cd0000;fill-opacity:1;stroke:none;stroke-width:0.14111111;stroke-miterlimit:4;stroke-dasharray:none;stroke-opacity:1"
           d="m 18.44524,281.63354 q 0,-0.48243 -0.200211,-0.74777 -0.197798,-0.26534 -0.557212,-0.26534 -0.357002,0 -0.557213,0.26534 -0.197798,0.26534 -0.197798,0.74777 0,0.48002 0.197798,0.74536 0.200211,0.26534 0.557213,0.26534 0.359414,0 0.557212,-0.26534 0.200211,-0.26534 0.200211,-0.74536 z m 0.44384,1.04688 q 0,0.68989 -0.306347,1.02518 -0.306346,0.3377 -0.938336,0.3377 -0.23398,0 -0.441428,-0.0362 -0.207447,-0.0338 -0.402833,-0.10614 v -0.43177 q 0.195386,0.10613 0.385948,0.15679 0.190562,0.0507 0.38836,0.0507 0.436604,0 0.6537,-0.22915 0.217096,-0.22675 0.217096,-0.68747 v -0.21951 q -0.137494,0.2388 -0.352178,0.357 -0.214684,0.1182 -0.513793,0.1182 -0.496908,0 -0.800842,-0.37871 -0.303934,-0.37872 -0.303934,-1.00347 0,-0.62717 0.303934,-1.00588 0.303934,-0.37871 0.800842,-0.37871 0.299109,0 0.513793,0.1182 0.214684,0.1182 0.352178,0.357 v -0.41007 h 0.44384 z"
           inkscape:connector-curvature="0" />
        <path
           id="path884"
           style="fill:#cd0000;fill-opacity:1;stroke:none;stroke-width:0.14111111;stroke-miterlimit:4;stroke-dasharray:none;stroke-opacity:1"
           d="m 22.114157,281.55394 v 0.21709 h -2.0407 q 0.02895,0.45832 0.274988,0.69954 0.248454,0.2388 0.689882,0.2388 0.255691,0 0.494496,-0.0627 0.241218,-0.0627 0.477611,-0.18815 v 0.41972 q -0.238806,0.10131 -0.489672,0.15438 -0.250866,0.0531 -0.508969,0.0531 -0.646463,0 -1.025174,-0.3763 -0.376299,-0.3763 -0.376299,-1.01794 0,-0.66335 0.357002,-1.05171 0.359414,-0.39077 0.967282,-0.39077 0.545151,0 0.861146,0.35218 0.318407,0.34976 0.318407,0.95281 z m -0.44384,-0.13026 q -0.0048,-0.36424 -0.205035,-0.58133 -0.197798,-0.2171 -0.525854,-0.2171 -0.371475,0 -0.595807,0.20986 -0.22192,0.20986 -0.255691,0.59098 z"
           inkscape:connector-curvature="0" />
        <path
           id="path886"
           style="fill:#cd0000;fill-opacity:1;stroke:none;stroke-width:0.14111111;stroke-miterlimit:4;stroke-dasharray:none;stroke-opacity:1"
           d="m 25.088369,281.38509 v 1.63063 h -0.44384 v -1.61616 q 0,-0.38354 -0.149555,-0.5741 -0.149554,-0.19056 -0.448664,-0.19056 -0.359414,0 -0.566861,0.22916 -0.207447,0.22915 -0.207447,0.62475 v 1.52691 h -0.446253 v -2.70164 h 0.446253 v 0.41972 q 0.159203,-0.24363 0.373887,-0.36424 0.217096,-0.12061 0.49932,-0.12061 0.46555,0 0.704355,0.28946 0.238805,0.28705 0.238805,0.84668 z"
           inkscape:connector-curvature="0" />
        <path
           id="path888"
           style="fill:#cd0000;fill-opacity:1;stroke:none;stroke-width:0.14111111;stroke-miterlimit:4;stroke-dasharray:none;stroke-opacity:1"
           d="m 28.289324,281.55394 v 0.21709 h -2.0407 q 0.02895,0.45832 0.274988,0.69954 0.248454,0.2388 0.689882,0.2388 0.255691,0 0.494496,-0.0627 0.241218,-0.0627 0.477611,-0.18815 v 0.41972 q -0.238806,0.10131 -0.489672,0.15438 -0.250866,0.0531 -0.508969,0.0531 -0.646462,0 -1.025174,-0.3763 -0.376299,-0.3763 -0.376299,-1.01794 0,-0.66335 0.357002,-1.05171 0.359414,-0.39077 0.967282,-0.39077 0.545151,0 0.861146,0.35218 0.318407,0.34976 0.318407,0.95281 z m -0.44384,-0.13026 q -0.0048,-0.36424 -0.205035,-0.58133 -0.197798,-0.2171 -0.525854,-0.2171 -0.371475,0 -0.595807,0.20986 -0.22192,0.20986 -0.255691,0.59098 z"
           inkscape:connector-curvature="0" />
        <path
           id="path890"
           style="fill:#cd0000;fill-opacity:1;stroke:none;stroke-width:0.14111111;stroke-miterlimit:4;stroke-dasharray:none;stroke-opacity:1"
           d="m 30.583303,280.72897 q -0.07478,-0.0434 -0.164028,-0.0627 -0.08684,-0.0217 -0.192974,-0.0217 -0.376299,0 -0.578922,0.24604 -0.20021,0.24363 -0.20021,0.70194 v 1.42319 h -0.446252 v -2.70164 h 0.446252 v 0.41972 q 0.139906,-0.24604 0.364238,-0.36424 0.224333,-0.12061 0.545152,-0.12061 0.04583,0 0.101311,0.007 0.05548,0.005 0.123021,0.0169 z"
           inkscape:connector-curvature="0" />
        <path
           id="path892"
           style="fill:#cd0000;fill-opacity:1;stroke:none;stroke-width:0.14111111;stroke-miterlimit:4;stroke-dasharray:none;stroke-opacity:1"
           d="m 32.281474,281.65766 q -0.537915,0 -0.745362,0.12302 -0.207447,0.12302 -0.207447,0.41972 0,0.23639 0.154379,0.3763 0.156792,0.13749 0.424543,0.13749 0.369063,0 0.590983,-0.26051 0.224332,-0.26293 0.224332,-0.69712 v -0.0989 z m 0.885268,-0.18332 v 1.54138 h -0.44384 v -0.41007 q -0.151967,0.24604 -0.378711,0.36424 -0.226745,0.11578 -0.554801,0.11578 -0.414894,0 -0.660935,-0.23157 -0.24363,-0.23398 -0.24363,-0.62475 0,-0.4559 0.303934,-0.68747 0.306346,-0.23157 0.911802,-0.23157 h 0.622341 v -0.0434 q 0,-0.30635 -0.202623,-0.47279 -0.20021,-0.16885 -0.564448,-0.16885 -0.231569,0 -0.451077,0.0555 -0.219508,0.0555 -0.422131,0.16644 v -0.41007 q 0.24363,-0.0941 0.472786,-0.1399 0.229157,-0.0482 0.446253,-0.0482 0.586158,0 0.875619,0.30394 0.289461,0.30393 0.289461,0.92145 z"
           inkscape:connector-curvature="0" />
        <path
           id="path894"
           style="fill:#cd0000;fill-opacity:1;stroke:none;stroke-width:0.14111111;stroke-miterlimit:4;stroke-dasharray:none;stroke-opacity:1"
           d="m 34.522385,279.54701 v 0.76707 h 0.914214 v 0.34494 h -0.914214 v 1.4666 q 0,0.33047 0.08925,0.42455 0.09166,0.0941 0.369063,0.0941 h 0.455901 v 0.37148 h -0.455901 q -0.513793,0 -0.70918,-0.19057 -0.195386,-0.19297 -0.195386,-0.69953 v -1.4666 h -0.325643 v -0.34494 h 0.325643 v -0.76707 z"
           inkscape:connector-curvature="0" />
        <path
           id="path896"
           style="fill:#cd0000;fill-opacity:1;stroke:none;stroke-width:0.14111111;stroke-miterlimit:4;stroke-dasharray:none;stroke-opacity:1"
           d="m 37.069643,280.62525 q -0.357002,0 -0.564449,0.27981 -0.207447,0.2774 -0.207447,0.76225 0,0.48485 0.205035,0.76466 0.207447,0.2774 0.566861,0.2774 0.35459,0 0.562037,-0.27981 0.207447,-0.27981 0.207447,-0.76225 0,-0.48002 -0.207447,-0.75983 -0.207447,-0.28223 -0.562037,-0.28223 z m 0,-0.3763 q 0.578922,0 0.90939,0.3763 0.330468,0.3763 0.330468,1.04206 0,0.66335 -0.330468,1.04206 -0.330468,0.3763 -0.90939,0.3763 -0.581334,0 -0.911802,-0.3763 -0.328056,-0.37871 -0.328056,-1.04206 0,-0.66576 0.328056,-1.04206 0.330468,-0.3763 0.911802,-0.3763 z"
           inkscape:connector-curvature="0" />
        <path
           id="path898"
           style="fill:#cd0000;fill-opacity:1;stroke:none;stroke-width:0.14111111;stroke-miterlimit:4;stroke-dasharray:none;stroke-opacity:1"
           d="m 40.608303,280.72897 q -0.07478,-0.0434 -0.164028,-0.0627 -0.08684,-0.0217 -0.192974,-0.0217 -0.376299,0 -0.578922,0.24604 -0.20021,0.24363 -0.20021,0.70194 v 1.42319 h -0.446253 v -2.70164 h 0.446253 v 0.41972 q 0.139906,-0.24604 0.364238,-0.36424 0.224332,-0.12061 0.545151,-0.12061 0.04583,0 0.101312,0.007 0.05548,0.005 0.123021,0.0169 z"
           inkscape:connector-curvature="0" />
      </g>
    </g>
  </g>
</svg>
